<?xml version="1.0" encoding="UTF-8" standalone="no"?>
<svg
   xmlns:dc="http://purl.org/dc/elements/1.1/"
   xmlns:cc="http://creativecommons.org/ns#"
   xmlns:rdf="http://www.w3.org/1999/02/22-rdf-syntax-ns#"
   xmlns:svg="http://www.w3.org/2000/svg"
   xmlns="http://www.w3.org/2000/svg"
   xmlns:sodipodi="http://sodipodi.sourceforge.net/DTD/sodipodi-0.dtd"
   xmlns:inkscape="http://www.inkscape.org/namespaces/inkscape"
   width="400"
   height="200"
   viewBox="0 0 105.83333 52.916668"
   version="1.1"
   id="svg8"
   inkscape:version="1.0.2-2 (e86c870879, 2021-01-15)"
   sodipodi:docname="Jugador.svg">
  <defs
     id="defs2" />
  <sodipodi:namedview
     id="base"
     pagecolor="#353535"
     bordercolor="#666666"
     borderopacity="1.0"
     inkscape:pageopacity="0"
     inkscape:pageshadow="2"
     inkscape:zoom="5.3765624"
     inkscape:cx="186.48938"
     inkscape:cy="101.09664"
     inkscape:document-units="mm"
     inkscape:current-layer="layer2"
     inkscape:document-rotation="0"
     showgrid="false"
     units="px"
     inkscape:showpageshadow="false"
     inkscape:window-width="1920"
     inkscape:window-height="1017"
     inkscape:window-x="-8"
     inkscape:window-y="-8"
     inkscape:window-maximized="1" />
  <metadata
     id="metadata5">
    <rdf:RDF>
      <cc:Work
         rdf:about="">
        <dc:format>image/svg+xml</dc:format>
        <dc:type
           rdf:resource="http://purl.org/dc/dcmitype/StillImage" />
        <dc:title />
      </cc:Work>
    </rdf:RDF>
  </metadata>
  <g
     inkscape:label="Canvas"
     inkscape:groupmode="layer"
     id="layer1"
     style="display:none"
     sodipodi:insensitive="true">
    <rect
       style="fill:#ffffff;fill-opacity:1;stroke-width:0.273155"
       id="rect10"
       width="211.66667"
       height="211.66667"
       x="1.4210855e-14"
       y="0" />
  </g>
  <g
     inkscape:groupmode="layer"
     id="layer4"
     inkscape:label="Relleno Esfera"
     style="display:inline"
     sodipodi:insensitive="true">
    <path
       style="display:inline;fill:#585858;fill-opacity:1;stroke:none;stroke-width:0.0239925;stroke-opacity:1"
       d="m 58.763393,21.196948 c -0.3523,0.29518 -0.66291,0.64236 -0.99651,0.96001 -3.20177,3.19261 -6.39388,6.39511 -9.561358,9.62174 -0.13552,0.15684 -0.31124,0.28685 -0.41945,0.46346 0.001,0.15749 0.1949,0.19807 0.29307,0.28917 1.197448,0.79907 2.605608,1.31145 4.049988,1.36614 0.75894,0.009 1.5264,-0.0115 2.26387,-0.20965 1.74124,-0.40942 3.33133,-1.42723 4.42051,-2.84753 1.33966,-1.71314 1.91726,-3.98974 1.56986,-6.13531 -0.19603,-1.23696 -0.70631,-2.42112 -1.44828,-3.42783 -0.0411,-0.0522 -0.0991,-0.10617 -0.1717,-0.0802 z"
       id="path1425" />
    <path
       style="display:inline;fill:#585858;fill-opacity:1;stroke:none;stroke-width:0.0239925;stroke-opacity:1"
       d="m 52.373553,18.048168 c -1.81646,0.0174 -3.61049,0.7163 -4.990358,1.89163 -0.63261,0.55532 -1.19695,1.19279 -1.62014,1.92305 -0.57143,0.96495 -0.97017,2.04502 -1.09232,3.1628 -0.0517,0.9079 -0.0793,1.83285 0.14214,2.72256 0.18852,0.80814 0.48367,1.59803 0.92619,2.3027 0.13638,0.14122 0.25269,-0.0909 0.35139,-0.16686 3.512718,-3.52514 7.038218,-7.0377 10.537868,-10.57578 0.0958,-0.16406 -0.14051,-0.22308 -0.24109,-0.28942 -1.18259,-0.64453 -2.5282,-0.98532 -3.87562,-0.97155 -0.046,-2.7e-4 -0.092,5.3e-4 -0.13806,7.9e-4 z"
       id="path1427" />
    <path
       style="display:inline;fill:#333333;fill-opacity:1;stroke:#000000;stroke-width:0.0239925;stroke-opacity:1"
       d="m 56.865353,19.344758 c -0.20442,0.0683 -0.33301,0.26904 -0.49604,0.40134 -3.49126,3.4456 -6.9432,6.93082 -10.408618,10.40238 -0.15292,0.0974 -0.0252,0.24742 0.0572,0.3401 0.44247,0.5949 0.92648,1.17448 1.52219,1.62145 0.15305,0.0806 0.24489,-0.12401 0.34913,-0.1986 3.613018,-3.59653 7.201008,-7.21815 10.796528,-10.83219 0.0898,-0.15411 -0.12305,-0.25571 -0.19731,-0.37065 -0.46312,-0.48081 -0.95238,-0.94531 -1.50445,-1.32305 -0.0359,-0.022 -0.0746,-0.0457 -0.11861,-0.0408 z"
       id="path1431" />
    <path
       style="fill:#262626;fill-opacity:1;stroke:#000000;stroke-width:0.0239925;stroke-opacity:1"
       d="m 47.327466,31.918049 c -0.38404,-0.320554 -0.751472,-0.725258 -1.298056,-1.42974 -0.06197,-0.07987 -0.112292,-0.160718 -0.111827,-0.179663 5.3e-4,-0.01894 2.45014,-2.48998 5.44372,-5.491196 4.546293,-4.557885 5.453314,-5.456582 5.506236,-5.455698 0.139867,0.0024 0.793255,0.535339 1.3911,1.1348 0.22112,0.221716 0.402034,0.411999 0.402034,0.422852 0,0.01638 -11.085589,11.187343 -11.10185,11.187343 -0.0029,0 -0.107019,-0.08492 -0.231357,-0.188698 z"
       id="path1466" />
  </g>
  <g
     inkscape:groupmode="layer"
     id="layer3"
     inkscape:label="Contorno"
     style="display:inline"
     sodipodi:insensitive="true">
    <rect
       style="display:inline;fill:none;stroke:#ffffff;stroke-width:0.264999;stroke-opacity:1"
       id="rect869-1"
       width="21.018995"
       height="9.8296785"
       x="21.385342"
       y="20.890089" />
    <rect
       style="display:inline;fill:none;stroke:#ffffff;stroke-width:0.264999;stroke-opacity:1"
       id="rect869-5-6"
       width="21.018995"
       height="9.8296785"
       x="63.005333"
       y="20.890089" />
    <circle
       style="display:inline;fill:none;stroke:#ffffff;stroke-width:0.264999;stroke-opacity:1"
       id="path891-4"
       cx="52.574036"
       cy="25.909384"
       r="7.9950089" />
    <path
       style="display:inline;fill:none;stroke:#ffffff;stroke-width:0.264583px;stroke-linecap:butt;stroke-linejoin:miter;stroke-opacity:1"
       d="m 42.369716,25.585228 h 2.27571"
       id="path899-4" />
    <path
       style="display:inline;fill:none;stroke:#ffffff;stroke-width:0.264583px;stroke-linecap:butt;stroke-linejoin:miter;stroke-opacity:1"
       d="m 60.642893,25.477698 h 2.27571"
       id="path899-9-0" />
  </g>
  <g
     inkscape:groupmode="layer"
     id="layer2"
     inkscape:label="Dibujo"
     style="display:inline;opacity:1"
     sodipodi:insensitive="true">
    <path
       style="display:inline;fill:none;stroke:#999999;stroke-width:0.264583px;stroke-linecap:butt;stroke-linejoin:miter;stroke-opacity:1"
       d="m 72.739163,29.576728 1.13488,-1.25345 1.01632,1.27039"
       id="path921-4-8-7-0" />
    <path
       style="display:inline;fill:none;stroke:#999999;stroke-width:0.264583px;stroke-linecap:butt;stroke-linejoin:miter;stroke-opacity:1"
       d="m 74.890353,29.593668 1.13489,-1.25345 1.01632,1.27039"
       id="path921-3-8-9-3" />
    <path
       style="display:inline;fill:none;stroke:#999999;stroke-width:0.264583px;stroke-linecap:butt;stroke-linejoin:miter;stroke-opacity:1"
       d="m 77.041563,29.610608 1.13488,-1.25345 1.01631,1.27039"
       id="path921-30-3-9" />
    <path
       style="display:inline;fill:none;stroke:#999999;stroke-width:0.264583px;stroke-linecap:butt;stroke-linejoin:miter;stroke-opacity:1"
       d="m 79.192753,29.627548 1.13489,-1.25345 1.01631,1.27039"
       id="path921-4-2-3-8" />
    <path
       style="display:inline;fill:none;stroke:#999999;stroke-width:0.264583px;stroke-linecap:butt;stroke-linejoin:miter;stroke-opacity:1"
       d="m 81.343953,29.644488 1.13489,-1.25345 1.01631,1.27039"
       id="path921-3-6-7-0" />
    <path
       style="fill:none;stroke:#999999;stroke-width:0.264583px;stroke-linecap:butt;stroke-linejoin:miter;stroke-opacity:1"
       d="m 22.476993,23.089688 1.134885,-1.25345 1.016315,1.27039"
       id="path921" />
    <path
       style="display:inline;fill:none;stroke:#999999;stroke-width:0.264583px;stroke-linecap:butt;stroke-linejoin:miter;stroke-opacity:1"
       d="m 24.628193,23.106628 1.134885,-1.25345 1.016315,1.27039"
       id="path921-4" />
    <path
       style="display:inline;fill:none;stroke:#999999;stroke-width:0.264583px;stroke-linecap:butt;stroke-linejoin:miter;stroke-opacity:1"
       d="m 26.779393,23.123568 1.134885,-1.25345 1.016315,1.27039"
       id="path921-3" />
    <path
       style="display:inline;fill:none;stroke:#999999;stroke-width:0.264583px;stroke-linecap:butt;stroke-linejoin:miter;stroke-opacity:1"
       d="m 28.930593,23.140508 1.134885,-1.25345 1.016315,1.27039"
       id="path921-5" />
    <path
       style="display:inline;fill:none;stroke:#999999;stroke-width:0.264583px;stroke-linecap:butt;stroke-linejoin:miter;stroke-opacity:1"
       d="m 31.081793,23.157448 1.134885,-1.25345 1.016315,1.27039"
       id="path921-4-8" />
    <path
       style="display:inline;fill:none;stroke:#999999;stroke-width:0.264583px;stroke-linecap:butt;stroke-linejoin:miter;stroke-opacity:1"
       d="m 33.232993,23.174388 1.134885,-1.25345 1.016315,1.27039"
       id="path921-3-8" />
    <path
       style="display:inline;fill:none;stroke:#999999;stroke-width:0.264583px;stroke-linecap:butt;stroke-linejoin:miter;stroke-opacity:1"
       d="m 35.384193,23.191328 1.134885,-1.25345 1.016315,1.27039"
       id="path921-30" />
    <path
       style="display:inline;fill:none;stroke:#999999;stroke-width:0.264583px;stroke-linecap:butt;stroke-linejoin:miter;stroke-opacity:1"
       d="m 37.535392,23.208268 1.134885,-1.25345 1.016315,1.27039"
       id="path921-4-2" />
    <path
       style="display:inline;fill:none;stroke:#999999;stroke-width:0.264583px;stroke-linecap:butt;stroke-linejoin:miter;stroke-opacity:1"
       d="m 39.686592,23.225208 1.134885,-1.25345 1.016315,1.27039"
       id="path921-3-6" />
    <path
       style="display:inline;fill:none;stroke:#999999;stroke-width:0.264583px;stroke-linecap:butt;stroke-linejoin:miter;stroke-opacity:1"
       d="m 21.910961,26.268913 1.134885,-1.25345 1.016315,1.27039"
       id="path921-7" />
    <path
       style="display:inline;fill:none;stroke:#999999;stroke-width:0.264583px;stroke-linecap:butt;stroke-linejoin:miter;stroke-opacity:1"
       d="m 24.062161,26.285853 1.134885,-1.25345 1.016315,1.27039"
       id="path921-4-3" />
    <path
       style="display:inline;fill:none;stroke:#999999;stroke-width:0.264583px;stroke-linecap:butt;stroke-linejoin:miter;stroke-opacity:1"
       d="m 26.213361,26.302793 1.134885,-1.25345 1.016315,1.27039"
       id="path921-3-4" />
    <path
       style="display:inline;fill:none;stroke:#999999;stroke-width:0.264583px;stroke-linecap:butt;stroke-linejoin:miter;stroke-opacity:1"
       d="m 28.364561,26.319733 1.134885,-1.25345 1.016315,1.27039"
       id="path921-5-1" />
    <path
       style="display:inline;fill:none;stroke:#999999;stroke-width:0.264583px;stroke-linecap:butt;stroke-linejoin:miter;stroke-opacity:1"
       d="m 30.515761,26.336673 1.134885,-1.25345 1.016315,1.27039"
       id="path921-4-8-5" />
    <path
       style="display:inline;fill:none;stroke:#999999;stroke-width:0.264583px;stroke-linecap:butt;stroke-linejoin:miter;stroke-opacity:1"
       d="m 32.666961,26.353613 1.134885,-1.25345 1.016315,1.27039"
       id="path921-3-8-4" />
    <path
       style="display:inline;fill:none;stroke:#999999;stroke-width:0.264583px;stroke-linecap:butt;stroke-linejoin:miter;stroke-opacity:1"
       d="m 34.818161,26.370553 1.134885,-1.25345 1.016315,1.27039"
       id="path921-30-0" />
    <path
       style="display:inline;fill:none;stroke:#999999;stroke-width:0.264583px;stroke-linecap:butt;stroke-linejoin:miter;stroke-opacity:1"
       d="m 36.96936,26.387493 1.134885,-1.25345 1.016315,1.27039"
       id="path921-4-2-4" />
    <path
       style="display:inline;fill:none;stroke:#999999;stroke-width:0.264583px;stroke-linecap:butt;stroke-linejoin:miter;stroke-opacity:1"
       d="m 39.12056,26.404433 1.134885,-1.25345 1.016315,1.27039"
       id="path921-3-6-3" />
    <path
       style="display:inline;fill:none;stroke:#999999;stroke-width:0.264583px;stroke-linecap:butt;stroke-linejoin:miter;stroke-opacity:1"
       d="m 22.625701,29.502148 1.134885,-1.25345 1.016315,1.27039"
       id="path921-2" />
    <path
       style="display:inline;fill:none;stroke:#999999;stroke-width:0.264583px;stroke-linecap:butt;stroke-linejoin:miter;stroke-opacity:1"
       d="m 24.776901,29.519088 1.134885,-1.25345 1.016315,1.27039"
       id="path921-4-5" />
    <path
       style="display:inline;fill:none;stroke:#999999;stroke-width:0.264583px;stroke-linecap:butt;stroke-linejoin:miter;stroke-opacity:1"
       d="m 26.928101,29.536028 1.134885,-1.25345 1.016315,1.27039"
       id="path921-3-2" />
    <path
       style="display:inline;fill:none;stroke:#999999;stroke-width:0.264583px;stroke-linecap:butt;stroke-linejoin:miter;stroke-opacity:1"
       d="m 29.079301,29.552968 1.134885,-1.25345 1.016315,1.27039"
       id="path921-5-0" />
    <path
       style="display:inline;fill:none;stroke:#999999;stroke-width:0.264583px;stroke-linecap:butt;stroke-linejoin:miter;stroke-opacity:1"
       d="m 31.230501,29.569908 1.134885,-1.25345 1.016315,1.27039"
       id="path921-4-8-7" />
    <path
       style="display:inline;fill:none;stroke:#999999;stroke-width:0.264583px;stroke-linecap:butt;stroke-linejoin:miter;stroke-opacity:1"
       d="m 33.381701,29.586848 1.134885,-1.25345 1.016315,1.27039"
       id="path921-3-8-9" />
    <path
       style="display:inline;fill:none;stroke:#999999;stroke-width:0.264583px;stroke-linecap:butt;stroke-linejoin:miter;stroke-opacity:1"
       d="m 35.532901,29.603788 1.134885,-1.25345 1.016315,1.27039"
       id="path921-30-3" />
    <path
       style="display:inline;fill:none;stroke:#999999;stroke-width:0.264583px;stroke-linecap:butt;stroke-linejoin:miter;stroke-opacity:1"
       d="m 37.6841,29.620728 1.134885,-1.25345 1.016315,1.27039"
       id="path921-4-2-3" />
    <path
       style="display:inline;fill:none;stroke:#999999;stroke-width:0.264583px;stroke-linecap:butt;stroke-linejoin:miter;stroke-opacity:1"
       d="m 39.8353,29.637668 1.134885,-1.25345 1.016315,1.27039"
       id="path921-3-6-7" />
    <path
       style="display:inline;fill:none;stroke:#999999;stroke-width:0.264583px;stroke-linecap:butt;stroke-linejoin:miter;stroke-opacity:1"
       d="m 63.985653,23.096508 1.13488,-1.25345 1.01632,1.27039"
       id="path921-0" />
    <path
       style="display:inline;fill:none;stroke:#999999;stroke-width:0.264583px;stroke-linecap:butt;stroke-linejoin:miter;stroke-opacity:1"
       d="m 66.136853,23.113448 1.13488,-1.25345 1.01632,1.27039"
       id="path921-4-4" />
    <path
       style="display:inline;fill:none;stroke:#999999;stroke-width:0.264583px;stroke-linecap:butt;stroke-linejoin:miter;stroke-opacity:1"
       d="m 68.288053,23.130388 1.13488,-1.25345 1.01632,1.27039"
       id="path921-3-5" />
    <path
       style="display:inline;fill:none;stroke:#999999;stroke-width:0.264583px;stroke-linecap:butt;stroke-linejoin:miter;stroke-opacity:1"
       d="m 70.439253,23.147328 1.13488,-1.25345 1.01632,1.27039"
       id="path921-5-6" />
    <path
       style="display:inline;fill:none;stroke:#999999;stroke-width:0.264583px;stroke-linecap:butt;stroke-linejoin:miter;stroke-opacity:1"
       d="m 72.590453,23.164268 1.13488,-1.25345 1.01632,1.27039"
       id="path921-4-8-6" />
    <path
       style="display:inline;fill:none;stroke:#999999;stroke-width:0.264583px;stroke-linecap:butt;stroke-linejoin:miter;stroke-opacity:1"
       d="m 74.741653,23.181208 1.13488,-1.25345 1.01632,1.27039"
       id="path921-3-8-2" />
    <path
       style="display:inline;fill:none;stroke:#999999;stroke-width:0.264583px;stroke-linecap:butt;stroke-linejoin:miter;stroke-opacity:1"
       d="m 76.892853,23.198148 1.13488,-1.25345 1.01632,1.27039"
       id="path921-30-1" />
    <path
       style="display:inline;fill:none;stroke:#999999;stroke-width:0.264583px;stroke-linecap:butt;stroke-linejoin:miter;stroke-opacity:1"
       d="m 79.044053,23.215088 1.13488,-1.25345 1.01632,1.27039"
       id="path921-4-2-38" />
    <path
       style="display:inline;fill:none;stroke:#999999;stroke-width:0.264583px;stroke-linecap:butt;stroke-linejoin:miter;stroke-opacity:1"
       d="m 81.195253,23.232028 1.13488,-1.25345 1.01632,1.27039"
       id="path921-3-6-72" />
    <path
       style="display:inline;fill:none;stroke:#999999;stroke-width:0.264583px;stroke-linecap:butt;stroke-linejoin:miter;stroke-opacity:1"
       d="m 63.515563,26.251128 1.13489,-1.25345 1.01631,1.27039"
       id="path921-7-2" />
    <path
       style="display:inline;fill:none;stroke:#999999;stroke-width:0.264583px;stroke-linecap:butt;stroke-linejoin:miter;stroke-opacity:1"
       d="m 65.666763,26.268068 1.13489,-1.25345 1.01631,1.27039"
       id="path921-4-3-7" />
    <path
       style="display:inline;fill:none;stroke:#999999;stroke-width:0.264583px;stroke-linecap:butt;stroke-linejoin:miter;stroke-opacity:1"
       d="m 67.817963,26.285008 1.13489,-1.25345 1.01631,1.27039"
       id="path921-3-4-2" />
    <path
       style="display:inline;fill:none;stroke:#999999;stroke-width:0.264583px;stroke-linecap:butt;stroke-linejoin:miter;stroke-opacity:1"
       d="m 69.969163,26.301948 1.13489,-1.25345 1.01631,1.27039"
       id="path921-5-1-6" />
    <path
       style="display:inline;fill:none;stroke:#999999;stroke-width:0.264583px;stroke-linecap:butt;stroke-linejoin:miter;stroke-opacity:1"
       d="m 72.120363,26.318888 1.13489,-1.25345 1.01631,1.27039"
       id="path921-4-8-5-9" />
    <path
       style="display:inline;fill:none;stroke:#999999;stroke-width:0.264583px;stroke-linecap:butt;stroke-linejoin:miter;stroke-opacity:1"
       d="m 74.271563,26.335828 1.13489,-1.25345 1.01631,1.27039"
       id="path921-3-8-4-0" />
    <path
       style="display:inline;fill:none;stroke:#999999;stroke-width:0.264583px;stroke-linecap:butt;stroke-linejoin:miter;stroke-opacity:1"
       d="m 76.422763,26.352768 1.13489,-1.25345 1.01631,1.27039"
       id="path921-30-0-8" />
    <path
       style="display:inline;fill:none;stroke:#999999;stroke-width:0.264583px;stroke-linecap:butt;stroke-linejoin:miter;stroke-opacity:1"
       d="m 78.573963,26.369708 1.13489,-1.25345 1.01631,1.27039"
       id="path921-4-2-4-2" />
    <path
       style="display:inline;fill:none;stroke:#999999;stroke-width:0.264583px;stroke-linecap:butt;stroke-linejoin:miter;stroke-opacity:1"
       d="m 80.725163,26.386648 1.13489,-1.25345 1.01631,1.27039"
       id="path921-3-6-3-4" />
    <path
       style="display:inline;fill:none;stroke:#999999;stroke-width:0.264583px;stroke-linecap:butt;stroke-linejoin:miter;stroke-opacity:1"
       d="m 64.134353,29.508968 1.13489,-1.25345 1.01632,1.27039"
       id="path921-2-4" />
    <path
       style="display:inline;fill:none;stroke:#999999;stroke-width:0.264583px;stroke-linecap:butt;stroke-linejoin:miter;stroke-opacity:1"
       d="m 66.285563,29.525908 1.13488,-1.25345 1.01631,1.27039"
       id="path921-4-5-6" />
    <path
       style="display:inline;fill:none;stroke:#999999;stroke-width:0.264583px;stroke-linecap:butt;stroke-linejoin:miter;stroke-opacity:1"
       d="m 68.436753,29.542848 1.13489,-1.25345 1.01632,1.27039"
       id="path921-3-2-1" />
    <path
       style="display:inline;fill:none;stroke:#999999;stroke-width:0.264583px;stroke-linecap:butt;stroke-linejoin:miter;stroke-opacity:1"
       d="m 70.587963,29.559788 1.13488,-1.25345 1.01632,1.27039"
       id="path921-5-0-5" />
    <path
       style="fill:none;stroke:#ffffff;stroke-width:0.265972px;stroke-linecap:butt;stroke-linejoin:miter;stroke-opacity:1"
       d="M 58.826153,20.962448 47.592352,32.268118"
       id="path1369" />
    <path
       style="display:inline;fill:none;stroke:#ffffff;stroke-width:0.261524px;stroke-linecap:butt;stroke-linejoin:miter;stroke-opacity:1"
       d="M 56.839483,19.140308 45.770212,30.233528"
       id="path1369-9" />
  </g>
</svg>
